# xmcd
# 
# Track frame offsets:
#     150
#     14094
#     64497
#     128120
#     161984
#     188134
#     193482
#     212190
#     228143
#     315589
# 
# Disc length: 4768
# 
# Revision: 2
# Processed by: cddbd v1.5.2PL0 Copyright (c) Steve Scherf et al.
# Submitted via: BonkEnc v1.0.8
# 
DISCID=99129e0a
DTITLE=Chris McGregor Brotherhood Of Breath - Bremen To Bridgewater
DYEAR=1971
DGENRE=Big Band
TTITLE0=Funky Boots March
TTITLE1=Kongi's Theme
TTITLE2=Now
TTITLE3=The Bride
TTITLE4=Think of Something
TTITLE5=Union Special
TTITLE6=Andromeda
TTITLE7=Do It
TTITLE8=The Serpent's Gently Eye
TTITLE9=Untitled Original
EXTD=YEAR: 2004
EXTT0=
EXTT1=
EXTT2=
EXTT3=
EXTT4=
EXTT5=
EXTT6=
EXTT7=
EXTT8=
EXTT9=
PLAYORDER=
